<mxfile host="app.diagrams.net" agent="Mozilla/5.0 (X11; Linux x86_64; rv:128.0) Gecko/20100101 Firefox/128.0" version="26.2.14">
  <diagram name="Page-1" id="vJqSC1z7H8xDEai6AFI4">
    <mxGraphModel dx="815" dy="455" grid="1" gridSize="10" guides="1" tooltips="1" connect="1" arrows="1" fold="1" page="1" pageScale="1" pageWidth="850" pageHeight="1100" math="0" shadow="0">
      <root>
        <mxCell id="0" />
        <mxCell id="1" parent="0" />
        <mxCell id="oQce_AGo4Ze9OdhYGGR_-1" value="" style="endArrow=none;dashed=1;html=1;rounded=0;" edge="1" parent="1">
          <mxGeometry width="50" height="50" relative="1" as="geometry">
            <mxPoint x="120" y="500" as="sourcePoint" />
            <mxPoint x="120" y="120" as="targetPoint" />
          </mxGeometry>
        </mxCell>
        <mxCell id="oQce_AGo4Ze9OdhYGGR_-2" value="" style="endArrow=none;dashed=1;html=1;rounded=0;" edge="1" parent="1">
          <mxGeometry width="50" height="50" relative="1" as="geometry">
            <mxPoint x="240" y="500" as="sourcePoint" />
            <mxPoint x="240" y="120" as="targetPoint" />
          </mxGeometry>
        </mxCell>
        <mxCell id="oQce_AGo4Ze9OdhYGGR_-26" value="&lt;div&gt;&lt;br&gt;&lt;/div&gt;" style="edgeLabel;html=1;align=center;verticalAlign=middle;resizable=0;points=[];fontSize=9;" vertex="1" connectable="0" parent="oQce_AGo4Ze9OdhYGGR_-2">
          <mxGeometry x="-0.2173" relative="1" as="geometry">
            <mxPoint y="-10" as="offset" />
          </mxGeometry>
        </mxCell>
        <mxCell id="oQce_AGo4Ze9OdhYGGR_-4" value="(Pseudo)Motor" style="text;html=1;align=center;verticalAlign=middle;resizable=0;points=[];autosize=1;strokeColor=none;fillColor=none;rotation=0;" vertex="1" parent="1">
          <mxGeometry x="70" y="80" width="100" height="30" as="geometry" />
        </mxCell>
        <mxCell id="oQce_AGo4Ze9OdhYGGR_-5" value="&lt;div&gt;Orchestrator&lt;/div&gt;" style="text;html=1;align=center;verticalAlign=middle;resizable=0;points=[];autosize=1;strokeColor=none;fillColor=none;" vertex="1" parent="1">
          <mxGeometry x="195" y="80" width="90" height="30" as="geometry" />
        </mxCell>
        <mxCell id="oQce_AGo4Ze9OdhYGGR_-6" value="" style="endArrow=none;dashed=1;html=1;rounded=0;" edge="1" parent="1">
          <mxGeometry width="50" height="50" relative="1" as="geometry">
            <mxPoint x="360" y="500" as="sourcePoint" />
            <mxPoint x="360" y="120" as="targetPoint" />
          </mxGeometry>
        </mxCell>
        <mxCell id="oQce_AGo4Ze9OdhYGGR_-7" value="Sensors" style="text;html=1;align=center;verticalAlign=middle;resizable=0;points=[];autosize=1;strokeColor=none;fillColor=none;" vertex="1" parent="1">
          <mxGeometry x="325" y="80" width="70" height="30" as="geometry" />
        </mxCell>
        <mxCell id="oQce_AGo4Ze9OdhYGGR_-8" value="" style="endArrow=none;dashed=1;html=1;rounded=0;" edge="1" parent="1">
          <mxGeometry width="50" height="50" relative="1" as="geometry">
            <mxPoint x="600" y="500" as="sourcePoint" />
            <mxPoint x="600" y="120" as="targetPoint" />
          </mxGeometry>
        </mxCell>
        <mxCell id="oQce_AGo4Ze9OdhYGGR_-9" value="&lt;div&gt;DataCollector(s)&lt;/div&gt;" style="text;html=1;align=center;verticalAlign=middle;resizable=0;points=[];autosize=1;strokeColor=none;fillColor=none;" vertex="1" parent="1">
          <mxGeometry x="545" y="80" width="110" height="30" as="geometry" />
        </mxCell>
        <mxCell id="oQce_AGo4Ze9OdhYGGR_-10" value="" style="endArrow=classic;html=1;rounded=0;strokeWidth=1;fillColor=none;fontSize=9;" edge="1" parent="1">
          <mxGeometry width="50" height="50" relative="1" as="geometry">
            <mxPoint x="120" y="154" as="sourcePoint" />
            <mxPoint x="240" y="154" as="targetPoint" />
          </mxGeometry>
        </mxCell>
        <mxCell id="oQce_AGo4Ze9OdhYGGR_-36" value="PM.scan()" style="edgeLabel;html=1;align=center;verticalAlign=middle;resizable=0;points=[];fontSize=9;" vertex="1" connectable="0" parent="oQce_AGo4Ze9OdhYGGR_-10">
          <mxGeometry x="-0.2239" y="-2" relative="1" as="geometry">
            <mxPoint y="-2" as="offset" />
          </mxGeometry>
        </mxCell>
        <mxCell id="oQce_AGo4Ze9OdhYGGR_-13" value="" style="endArrow=classic;html=1;rounded=0;startArrow=classic;startFill=1;fontSize=9;" edge="1" parent="1">
          <mxGeometry width="50" height="50" relative="1" as="geometry">
            <mxPoint x="240" y="198" as="sourcePoint" />
            <mxPoint x="360" y="198" as="targetPoint" />
          </mxGeometry>
        </mxCell>
        <mxCell id="oQce_AGo4Ze9OdhYGGR_-34" value="get_info" style="edgeLabel;html=1;align=center;verticalAlign=middle;resizable=0;points=[];fontSize=9;" vertex="1" connectable="0" parent="oQce_AGo4Ze9OdhYGGR_-13">
          <mxGeometry x="-0.031" relative="1" as="geometry">
            <mxPoint as="offset" />
          </mxGeometry>
        </mxCell>
        <mxCell id="oQce_AGo4Ze9OdhYGGR_-14" value="" style="endArrow=classic;html=1;rounded=0;startArrow=classic;startFill=1;fontSize=9;" edge="1" parent="1">
          <mxGeometry width="50" height="50" relative="1" as="geometry">
            <mxPoint x="480" y="220" as="sourcePoint" />
            <mxPoint x="240" y="220" as="targetPoint" />
          </mxGeometry>
        </mxCell>
        <mxCell id="oQce_AGo4Ze9OdhYGGR_-35" value="get_info" style="edgeLabel;html=1;align=center;verticalAlign=middle;resizable=0;points=[];fontSize=9;" vertex="1" connectable="0" parent="oQce_AGo4Ze9OdhYGGR_-14">
          <mxGeometry x="0.0964" relative="1" as="geometry">
            <mxPoint as="offset" />
          </mxGeometry>
        </mxCell>
        <mxCell id="oQce_AGo4Ze9OdhYGGR_-16" value="" style="endArrow=classic;html=1;rounded=0;fontSize=9;" edge="1" parent="1">
          <mxGeometry width="50" height="50" relative="1" as="geometry">
            <mxPoint x="240" y="259" as="sourcePoint" />
            <mxPoint x="600" y="259" as="targetPoint" />
          </mxGeometry>
        </mxCell>
        <mxCell id="oQce_AGo4Ze9OdhYGGR_-17" value="New scan" style="edgeLabel;html=1;align=center;verticalAlign=middle;resizable=0;points=[];fontSize=9;" vertex="1" connectable="0" parent="oQce_AGo4Ze9OdhYGGR_-16">
          <mxGeometry x="0.1607" relative="1" as="geometry">
            <mxPoint as="offset" />
          </mxGeometry>
        </mxCell>
        <mxCell id="oQce_AGo4Ze9OdhYGGR_-20" value="move" style="endArrow=none;html=1;rounded=0;startArrow=classic;startFill=1;fontSize=9;" edge="1" parent="1">
          <mxGeometry width="50" height="50" relative="1" as="geometry">
            <mxPoint x="120" y="300" as="sourcePoint" />
            <mxPoint x="240" y="290" as="targetPoint" />
          </mxGeometry>
        </mxCell>
        <mxCell id="oQce_AGo4Ze9OdhYGGR_-25" value="Ready" style="endArrow=classic;html=1;rounded=0;startArrow=none;startFill=0;endFill=1;fontSize=9;" edge="1" parent="1">
          <mxGeometry width="50" height="50" relative="1" as="geometry">
            <mxPoint x="120" y="300" as="sourcePoint" />
            <mxPoint x="240" y="310" as="targetPoint" />
          </mxGeometry>
        </mxCell>
        <mxCell id="oQce_AGo4Ze9OdhYGGR_-27" value="&lt;font&gt;Measure (acq_time)&lt;/font&gt;" style="endArrow=classic;html=1;rounded=0;startArrow=none;startFill=0;endFill=1;fontSize=9;" edge="1" parent="1">
          <mxGeometry width="50" height="50" relative="1" as="geometry">
            <mxPoint x="240" y="350" as="sourcePoint" />
            <mxPoint x="360" y="360" as="targetPoint" />
          </mxGeometry>
        </mxCell>
        <mxCell id="oQce_AGo4Ze9OdhYGGR_-28" value="Data" style="endArrow=none;html=1;rounded=0;startArrow=classic;startFill=1;fontSize=9;" edge="1" parent="1">
          <mxGeometry width="50" height="50" relative="1" as="geometry">
            <mxPoint x="240" y="370" as="sourcePoint" />
            <mxPoint x="360" y="360" as="targetPoint" />
          </mxGeometry>
        </mxCell>
        <mxCell id="oQce_AGo4Ze9OdhYGGR_-29" value="" style="endArrow=classic;html=1;rounded=0;fontSize=9;" edge="1" parent="1">
          <mxGeometry width="50" height="50" relative="1" as="geometry">
            <mxPoint x="240" y="460" as="sourcePoint" />
            <mxPoint x="600" y="460" as="targetPoint" />
          </mxGeometry>
        </mxCell>
        <mxCell id="oQce_AGo4Ze9OdhYGGR_-30" value="Data point" style="edgeLabel;html=1;align=center;verticalAlign=middle;resizable=0;points=[];fontSize=9;" vertex="1" connectable="0" parent="oQce_AGo4Ze9OdhYGGR_-29">
          <mxGeometry x="0.1607" relative="1" as="geometry">
            <mxPoint as="offset" />
          </mxGeometry>
        </mxCell>
        <mxCell id="oQce_AGo4Ze9OdhYGGR_-31" value="&lt;div&gt;get_positions&lt;/div&gt;" style="endArrow=classic;html=1;rounded=0;startArrow=classic;startFill=1;endFill=1;fontSize=9;" edge="1" parent="1">
          <mxGeometry width="50" height="50" relative="1" as="geometry">
            <mxPoint x="480" y="420" as="sourcePoint" />
            <mxPoint x="240" y="420" as="targetPoint" />
          </mxGeometry>
        </mxCell>
        <mxCell id="oQce_AGo4Ze9OdhYGGR_-32" value="" style="endArrow=none;dashed=1;html=1;rounded=0;" edge="1" parent="1">
          <mxGeometry width="50" height="50" relative="1" as="geometry">
            <mxPoint x="480" y="500" as="sourcePoint" />
            <mxPoint x="480" y="120" as="targetPoint" />
          </mxGeometry>
        </mxCell>
        <mxCell id="oQce_AGo4Ze9OdhYGGR_-33" value="&lt;div&gt;Controllers&lt;/div&gt;" style="text;html=1;align=center;verticalAlign=middle;resizable=0;points=[];autosize=1;strokeColor=none;fillColor=none;" vertex="1" parent="1">
          <mxGeometry x="440" y="80" width="80" height="30" as="geometry" />
        </mxCell>
      </root>
    </mxGraphModel>
  </diagram>
</mxfile>
